# xmcd
#
# Track frame offsets: 
#        150
#        19223
#        40581
#        61914
#        80947
#        92648
#        113652
#        125046
#        138328
#        155419
#        175536
#        192130
#        208194
#        219843
#        250039
#
# Disc length: 3535 seconds
#
# Revision: 0
# Processed by: cddbd v1.5.2PL0 Copyright (c) Steve Scherf et al.
# Submitted via: ExactAudioCopy v0.99pb5
#
DISCID=c70dcd0f
DTITLE=Connor, Joanna and Lewis, Lance - Unplugged at Carterco
DYEAR=2008
DGENRE=Blues
TTITLE0=All Blues
TTITLE1=Love me like a Man
TTITLE2=Light my Fire
TTITLE3=Since I feel for you
TTITLE4=Hesitation Blues/Diddyuah Diddy
TTITLE5=Further up on the Road
TTITLE6=Shake your Moneymaker
TTITLE7=Fever
TTITLE8=Can't find my way home
TTITLE9=Everyday I have the blues
TTITLE10=Fishing Blues
TTITLE11=Dust my broom
TTITLE12=Blackbird
TTITLE13=When the levee breaks
TTITLE14=Stay
EXTD=
EXTT0=
EXTT1=
EXTT2=
EXTT3=
EXTT4=
EXTT5=
EXTT6=
EXTT7=
EXTT8=
EXTT9=
EXTT10=
EXTT11=
EXTT12=
EXTT13=
EXTT14=
PLAYORDER=
